<svg width="1440" height="682" viewBox="0 0 1440 682" fill="none" xmlns="http://www.w3.org/2000/svg">
<g clip-path="url(#clip0_502_17)">
<rect width="1440" height="682" rx="10" fill="url(#paint0_linear_502_17)"/>
<path d="M182.489 317.278H-339.599C-360.906 317.278 -365.472 319.193 -377.647 334.507L-791.566 816.869C-803.741 832.184 -805.263 837.927 -805.263 864.727V1148.05C-805.263 1308.8 -741.343 1389.2 -613.504 1389.2H-91.4154C-70.1468 1389.2 -65.5811 1387.29 -53.4058 1371.98L360.551 889.614C372.688 874.299 374.21 868.556 374.21 841.755V558.483C374.21 397.68 310.329 317.278 182.489 317.278Z" fill="white" fill-opacity="0.03"/>
<path d="M604.068 -990.383H81.9795C60.6729 -990.383 56.1072 -988.468 43.932 -973.154L-369.987 -490.792C-382.162 -475.477 -383.684 -469.734 -383.684 -442.934V-159.614C-383.684 1.1419 -319.764 81.5435 -191.925 81.5435H330.164C351.432 81.5435 355.998 79.6292 368.173 64.3146L782.13 -418.047C794.267 -433.362 795.789 -439.105 795.789 -465.906V-749.178C795.789 -909.981 731.907 -990.383 604.068 -990.383Z" fill="white" fill-opacity="0.03"/>
<path d="M850.143 -990.383H1372.23C1393.54 -990.383 1398.1 -988.468 1410.28 -973.154L1824.2 -490.792C1836.37 -475.477 1837.89 -469.734 1837.89 -442.934V-159.614C1837.89 1.1419 1773.97 81.5435 1646.14 81.5435H1124.05C1102.78 81.5435 1098.21 79.6292 1086.04 64.3146L672.08 -418.047C659.943 -433.362 658.421 -439.105 658.421 -465.906V-749.178C658.421 -909.981 722.303 -990.383 850.143 -990.383Z" fill="white" fill-opacity="0.03"/>
<path d="M1257.51 317.278H1779.6C1800.91 317.278 1805.47 319.193 1817.65 334.507L2231.57 816.869C2243.74 832.184 2245.26 837.927 2245.26 864.727V1148.05C2245.26 1308.8 2181.34 1389.2 2053.5 1389.2H1531.42C1510.15 1389.2 1505.58 1387.29 1493.41 1371.98L1079.45 889.614C1067.31 874.299 1065.79 868.556 1065.79 841.755V558.483C1065.79 397.68 1129.67 317.278 1257.51 317.278Z" fill="white" fill-opacity="0.03"/>
</g>
<defs>
<linearGradient id="paint0_linear_502_17" x1="-66.3158" y1="-34.3544" x2="1576.57" y2="145.211" gradientUnits="userSpaceOnUse">
<stop stop-color="#4320C4"/>
<stop offset="1" stop-color="#3D11DB"/>
</linearGradient>
<clipPath id="clip0_502_17">
<rect width="1440" height="682" rx="10" fill="white"/>
</clipPath>
</defs>
</svg>
