<svg width="20" height="20" viewBox="0 0 20 20" fill="none" xmlns="http://www.w3.org/2000/svg">
<path fill-rule="evenodd" clip-rule="evenodd" d="M1 9.29099C1 11.974 2.42 14.336 4.599 15.825C4.598 16.68 4.6 17.832 4.6 19.041L8.131 17.294C8.735 17.41 9.359 17.473 10 17.473C14.952 17.473 19 13.83 19 9.29099C19 4.75199 14.952 1.10899 10 1.10899C5.048 1.10899 1 4.75199 1 9.29099Z" stroke="#653DF5" stroke-width="1.5" stroke-linecap="round" stroke-linejoin="round"/>
<path d="M9.89899 10.328V10.121C9.89899 9.44299 10.318 9.07599 10.738 8.79399C11.148 8.51799 11.559 8.15799 11.559 7.49399C11.559 6.57699 10.816 5.83499 9.89999 5.83499C8.98399 5.83499 8.23999 6.57599 8.23999 7.49299" stroke="#653DF5" stroke-width="1.5" stroke-linecap="round" stroke-linejoin="round"/>
<path d="M9.89799 12.667C9.81499 12.667 9.74799 12.734 9.74899 12.817C9.74899 12.9 9.81599 12.967 9.89899 12.967C9.98199 12.967 10.049 12.9 10.049 12.817C10.049 12.734 9.98299 12.667 9.89799 12.667" stroke="#653DF5" stroke-width="1.5" stroke-linecap="round" stroke-linejoin="round"/>
</svg>
