<svg width="168" height="72" viewBox="0 0 168 72" fill="none" xmlns="http://www.w3.org/2000/svg">
<path d="M43.652 44.3236C38.4199 44.3236 34.2127 39.9816 34.2127 34.7226C34.2127 29.4635 38.4199 25.0945 43.652 25.0945C46.6995 25.0945 49.3695 26.5239 51.0415 28.7084L48.5604 30.5963C47.4277 29.1129 45.7556 28.169 43.7329 28.169C40.1999 28.169 37.5299 31.1626 37.5299 34.7226C37.5299 38.2825 40.146 41.2491 43.7329 41.2491C45.7556 41.2491 47.4277 40.3052 48.5604 38.8219L51.0415 40.7097C49.3695 42.8943 46.6995 44.3236 43.652 44.3236ZM55.9584 44H52.83V24.5551H55.9584V44ZM64.7748 44.3236C61.1879 44.3236 58.0864 41.6806 58.0864 37.6892C58.0864 33.6977 61.1879 31.0817 64.7748 31.0817C68.3617 31.0817 71.4902 33.6977 71.4902 37.6892C71.4902 41.6806 68.3617 44.3236 64.7748 44.3236ZM64.7748 41.4109C66.7166 41.4109 68.3348 39.9007 68.3348 37.6892C68.3348 35.5316 66.7166 33.9944 64.7748 33.9944C62.833 33.9944 61.2418 35.5316 61.2418 37.6892C61.2418 39.9007 62.833 41.4109 64.7748 41.4109ZM82.4167 38.1477V31.4053H85.5452V44H82.4167V42.0312C81.7695 43.6224 79.7738 44.3236 78.5062 44.3236C75.2699 44.3236 73.4629 42.1391 73.4629 38.4713V31.4053H76.5914V38.3364C76.5914 40.3591 77.805 41.4109 79.2074 41.4109C80.6368 41.4109 82.4167 40.6019 82.4167 38.1477ZM98.088 33.0505V24.5551H101.216V44H98.088V42.3279C97.225 43.6494 95.445 44.3236 93.9078 44.3236C90.5905 44.3236 87.7048 41.7076 87.7048 37.6892C87.7048 33.6438 90.5636 31.0817 93.8808 31.0817C95.472 31.0817 97.225 31.729 98.088 33.0505ZM94.3932 41.4109C96.308 41.4109 98.0341 39.8737 98.0341 37.6622C98.0341 35.4507 96.2002 33.9944 94.3932 33.9944C92.4514 33.9944 90.8602 35.5586 90.8602 37.6622C90.8602 39.7658 92.4514 41.4109 94.3932 41.4109ZM111.177 31.0817C114.71 31.0817 117.569 33.8595 117.569 37.6892C117.569 41.5188 114.71 44.3236 111.177 44.3236C109.073 44.3236 107.078 43.2449 106.161 41.5188V44H104.435V24.5551H106.161V33.8595C107.105 32.1335 109.046 31.0817 111.177 31.0817ZM111.042 42.6785C113.712 42.6785 115.87 40.467 115.87 37.6622C115.87 34.8844 113.712 32.7268 111.042 32.7268C108.534 32.7268 106.161 34.6956 106.161 37.7431C106.161 40.6558 108.426 42.6785 111.042 42.6785ZM125.935 44.3236C122.349 44.3236 119.355 41.6806 119.355 37.6892C119.355 33.6977 122.349 31.0817 125.935 31.0817C129.522 31.0817 132.543 33.6977 132.543 37.6892C132.543 41.6806 129.522 44.3236 125.935 44.3236ZM125.935 42.6785C128.578 42.6785 130.817 40.6558 130.817 37.6892C130.817 34.7226 128.578 32.7268 125.935 32.7268C123.266 32.7268 121.081 34.7226 121.081 37.6892C121.081 40.6558 123.266 42.6785 125.935 42.6785ZM140.876 44.3236C137.289 44.3236 134.296 41.6806 134.296 37.6892C134.296 33.6977 137.289 31.0817 140.876 31.0817C144.463 31.0817 147.484 33.6977 147.484 37.6892C147.484 41.6806 144.463 44.3236 140.876 44.3236ZM140.876 42.6785C143.519 42.6785 145.758 40.6558 145.758 37.6892C145.758 34.7226 143.519 32.7268 140.876 32.7268C138.206 32.7268 136.022 34.7226 136.022 37.6892C136.022 40.6558 138.206 42.6785 140.876 42.6785ZM153.659 44.3236C151.475 44.3236 149.29 43.0561 149.074 40.6558H150.665C150.854 41.7076 151.825 42.7864 153.659 42.7864C155.466 42.7864 156.572 41.8425 156.572 40.5749C156.572 39.5501 155.871 38.8758 154.576 38.5522L152.769 38.1207C150.989 37.6892 149.56 36.7722 149.56 34.6686C149.56 32.619 151.313 31.0817 153.713 31.0817C155.817 31.0817 157.758 32.2414 157.839 34.5068H156.167C156.086 33.3741 154.981 32.619 153.74 32.619C152.284 32.619 151.286 33.5089 151.286 34.6956C151.286 35.8822 152.311 36.3947 153.228 36.6104L155.088 37.0689C157.543 37.6622 158.298 39.1455 158.298 40.6019C158.298 42.8403 156.275 44.3236 153.659 44.3236ZM163.414 31.4053H166.3V32.8886H163.414V44H161.715V32.8886H159.423V31.4053H161.715V26.6857H163.414V31.4053Z" fill="white"/>
<path d="M21.1374 25.8273H10.0118C9.55778 25.8273 9.46048 25.8613 9.20103 26.1333L0.380491 34.6989C0.121039 34.9709 0.0886078 35.0729 0.0886078 35.5488V40.5799C0.0886078 43.4346 1.45073 44.8623 4.17497 44.8623H15.3006C15.7538 44.8623 15.8511 44.8284 16.1105 44.5564L24.9319 35.9907C25.1905 35.7188 25.223 35.6168 25.223 35.1409V30.1106C25.223 27.2551 23.8617 25.8273 21.1374 25.8273Z" fill="#653DF5"/>
</svg>
